<svg xmlns="http://www.w3.org/2000/svg" xmlns:xlink="http://www.w3.org/1999/xlink" contentStyleType="text/css" data-diagram-type="DESCRIPTION" height="1347px" preserveAspectRatio="none" style="width:1299px;height:1347px;background:#FFFFFF;" version="1.1" viewBox="0 0 1299 1347" width="1299px" zoomAndPan="magnify"><?plantuml 1.2026.3beta6?><defs/><g><g class="title" data-source-line="1"><text fill="#000000" font-family="Monospace" font-size="14" font-weight="700" lengthAdjust="spacing" textLength="457.0166" x="417.8517" y="22.9951">AMP&#160;Battery&#160;Charging&#160;System&#160;(HALO&#160;Workshop&#160;Scenario)</text></g><!--cluster SYS--><g class="cluster" data-qualified-name="SYS" data-source-line="17" id="ent0002"><rect fill="#F7F7F7" height="1178" rx="6" ry="6" style="stroke:#333333;stroke-width:1;" width="1164.57" x="121.15" y="44.2969"/><text fill="#000000" font-family="Monospace" font-size="14" font-weight="700" lengthAdjust="spacing" textLength="156.085" x="625.3925" y="59.292">RISC-V&#160;AMP&#160;System</text></g><!--cluster H0--><g class="cluster" data-qualified-name="SYS.H0" data-source-line="19" id="ent0003"><rect fill="#97C97C" height="155" rx="6" ry="6" style="stroke:#333333;stroke-width:1;" width="187.37" x="163.52" y="983.2969"/><text fill="#000000" font-family="Monospace" font-size="14" font-weight="700" lengthAdjust="spacing" textLength="44.502" x="234.954" y="998.292">Hart0</text><text fill="#000000" font-family="Monospace" font-size="14" font-weight="700" lengthAdjust="spacing" textLength="60.9902" x="226.7099" y="1014.5889">S7&#160;Core</text><text fill="#000000" font-family="Monospace" font-size="14" font-weight="700" lengthAdjust="spacing" textLength="63.4648" x="225.4726" y="1030.8857">M-mode</text></g><!--cluster H1--><g class="cluster" data-qualified-name="SYS.H1" data-source-line="23" id="ent0005"><rect fill="#B7D9EA" height="300" rx="6" ry="6" style="stroke:#333333;stroke-width:1;" width="178.41" x="168" y="643.2969"/><text fill="#000000" font-family="Monospace" font-size="14" font-weight="700" lengthAdjust="spacing" textLength="44.502" x="234.954" y="658.292">Hart1</text><text fill="#000000" font-family="Monospace" font-size="14" font-weight="700" lengthAdjust="spacing" textLength="72.0166" x="221.1967" y="674.5889">U74&#160;Core</text><text fill="#000000" font-family="Monospace" font-size="14" font-weight="700" lengthAdjust="spacing" textLength="63.4648" x="225.4726" y="690.8857">M-mode</text></g><!--cluster H2--><g class="cluster" data-qualified-name="SYS.H2" data-source-line="28" id="ent0008"><rect fill="#B7D9EA" height="226" rx="6" ry="6" style="stroke:#333333;stroke-width:1;" width="192.11" x="161.15" y="111.2969"/><text fill="#000000" font-family="Monospace" font-size="14" font-weight="700" lengthAdjust="spacing" textLength="44.502" x="234.954" y="126.292">Hart2</text><text fill="#000000" font-family="Monospace" font-size="14" font-weight="700" lengthAdjust="spacing" textLength="72.0166" x="221.1967" y="142.5889">U74&#160;Core</text><text fill="#000000" font-family="Monospace" font-size="14" font-weight="700" lengthAdjust="spacing" textLength="63.4648" x="225.4726" y="158.8857">M-mode</text></g><!--cluster H3--><g class="cluster" data-qualified-name="SYS.H3" data-source-line="33" id="ent0011"><rect fill="#B7D9EA" height="226" rx="6" ry="6" style="stroke:#333333;stroke-width:1;" width="177.61" x="168.4" y="377.2969"/><text fill="#000000" font-family="Monospace" font-size="14" font-weight="700" lengthAdjust="spacing" textLength="44.502" x="234.954" y="392.292">Hart3</text><text fill="#000000" font-family="Monospace" font-size="14" font-weight="700" lengthAdjust="spacing" textLength="72.0166" x="221.1967" y="408.5889">U74&#160;Core</text><text fill="#000000" font-family="Monospace" font-size="14" font-weight="700" lengthAdjust="spacing" textLength="63.4648" x="225.4726" y="424.8857">M-mode</text></g><!--cluster H4--><g class="cluster" data-qualified-name="SYS.H4" data-source-line="40" id="ent0015"><rect fill="#FFD76A" height="406" rx="6" ry="6" style="stroke:#333333;stroke-width:1;" width="208.98" x="1036.74" y="338.2969"/><text fill="#000000" font-family="Monospace" font-size="14" font-weight="700" lengthAdjust="spacing" textLength="44.502" x="1118.979" y="353.292">Hart4</text><text fill="#000000" font-family="Monospace" font-size="14" font-weight="700" lengthAdjust="spacing" textLength="72.0166" x="1105.2217" y="369.5889">U74&#160;Core</text></g><!--cluster SH--><g class="cluster" data-qualified-name="SYS.SH" data-source-line="46" id="ent0019"><rect fill="#EDEDED" height="194" rx="6" ry="6" style="stroke:#333333;stroke-width:1;" width="166.13" x="664.79" y="712.2969"/><text fill="#000000" font-family="Monospace" font-size="14" font-weight="700" lengthAdjust="spacing" textLength="127.3262" x="684.1919" y="727.292">Shared&#160;Services</text></g><!--entity SHM--><g class="entity" data-qualified-name="SYS.SHM" data-source-line="38" id="ent0014"><rect fill="#EDEDED" height="36.2969" rx="6" ry="6" style="stroke:#333333;stroke-width:0.5;" width="157.7783" x="668.96" y="411.1469"/><text fill="#000000" font-family="Monospace" font-size="14" lengthAdjust="spacing" textLength="137.7783" x="678.96" y="434.142">Shared&#160;Memory&#160;IPC</text></g><!--entity OP--><g class="entity" data-qualified-name="SYS.OP" data-source-line="51" id="ent0022"><rect fill="#FFF9D6" height="36.2969" rx="6" ry="6" style="stroke:#333333;stroke-width:0.5;" width="145.4463" x="184.48" y="1162.1469"/><text fill="#000000" font-family="Monospace" font-size="14" lengthAdjust="spacing" textLength="125.4463" x="194.48" y="1185.142">External&#160;Operator</text></g><!--entity H0A--><g class="entity" data-qualified-name="SYS.H0.H0A" data-source-line="20" id="ent0004"><rect fill="#CFE8C8" height="36.2969" rx="6" ry="6" style="stroke:#333333;stroke-width:0.5;" width="139.376" x="187.52" y="1078.1469"/><text fill="#000000" font-family="Monospace" font-size="14" lengthAdjust="spacing" textLength="119.376" x="197.52" y="1101.142">Boot&#160;Coordinator</text></g><!--entity H1A--><g class="entity" data-qualified-name="SYS.H1.H1A" data-source-line="24" id="ent0006"><rect fill="#DDECF6" height="36.2969" rx="6" ry="6" style="stroke:#333333;stroke-width:0.5;" width="112.6406" x="200.88" y="863.1469"/><text fill="#000000" font-family="Monospace" font-size="14" lengthAdjust="spacing" textLength="92.6406" x="210.88" y="886.142">Zephyr&#160;RTOS</text></g><!--entity H1B--><g class="entity" data-qualified-name="SYS.H1.H1B" data-source-line="25" id="ent0007"><rect fill="#EAF4FB" height="109.4844" rx="6" ry="6" style="stroke:#333333;stroke-width:0.5;" width="130.4072" x="192" y="718.5569"/><text fill="#000000" font-family="Monospace" font-size="14" lengthAdjust="spacing" textLength="97.9863" x="202" y="741.552">Sensor&#160;Fusion</text><line style="stroke:#333333;stroke-width:1;" x1="193" x2="321.4072" y1="744.8537" y2="744.8537"/><text fill="#000000" font-family="Monospace" font-size="14" lengthAdjust="spacing" textLength="94.7256" x="202" y="761.8489">battery_temp</text><text fill="#000000" font-family="Monospace" font-size="14" lengthAdjust="spacing" textLength="110.4072" x="202" y="778.1457">battery_voltage</text><text fill="#000000" font-family="Monospace" font-size="14" lengthAdjust="spacing" textLength="106.4629" x="202" y="794.4426">charge_current</text><text fill="#000000" font-family="Monospace" font-size="14" lengthAdjust="spacing" textLength="62.0088" x="202" y="810.7395">cbreaker</text></g><!--entity H2A--><g class="entity" data-qualified-name="SYS.H2.H2A" data-source-line="29" id="ent0009"><rect fill="#DDECF6" height="36.2969" rx="6" ry="6" style="stroke:#333333;stroke-width:0.5;" width="89.2207" x="212.59" y="257.1469"/><text fill="#000000" font-family="Monospace" font-size="14" lengthAdjust="spacing" textLength="69.2207" x="222.59" y="280.142">FreeRTOS</text></g><!--entity H2B--><g class="entity" data-qualified-name="SYS.H2.H2B" data-source-line="30" id="ent0010"><rect fill="#EAF4FB" height="36.2969" rx="6" ry="6" style="stroke:#333333;stroke-width:0.5;" width="144.1064" x="185.15" y="186.1469"/><text fill="#000000" font-family="Monospace" font-size="14" lengthAdjust="spacing" textLength="124.1064" x="195.15" y="209.142">Charge&#160;Controller</text></g><!--entity H3A--><g class="entity" data-qualified-name="SYS.H3.H3A" data-source-line="34" id="ent0012"><rect fill="#DDECF6" height="36.2969" rx="6" ry="6" style="stroke:#333333;stroke-width:0.5;" width="129.6143" x="192.4" y="523.1469"/><text fill="#000000" font-family="Monospace" font-size="14" lengthAdjust="spacing" textLength="109.6143" x="202.4" y="546.142">Bare-metal&#160;App</text></g><!--entity H3B--><g class="entity" data-qualified-name="SYS.H3.H3B" data-source-line="35" id="ent0013"><rect fill="#EAF4FB" height="36.2969" rx="6" ry="6" style="stroke:#333333;stroke-width:0.5;" width="122.4502" x="195.98" y="452.1469"/><text fill="#000000" font-family="Monospace" font-size="14" lengthAdjust="spacing" textLength="102.4502" x="205.98" y="475.142">Safety&#160;Monitor</text></g><!--entity H4A--><g class="entity" data-qualified-name="SYS.H4.H4A" data-source-line="41" id="ent0016"><rect fill="#FFE8A6" height="52.5938" rx="6" ry="6" style="stroke:#333333;stroke-width:0.5;" width="160.9775" x="1060.74" y="647.9969"/><text fill="#000000" font-family="Monospace" font-size="14" lengthAdjust="spacing" textLength="140.9775" x="1070.74" y="670.992">OpenSBI&#160;Bootloader</text><text fill="#000000" font-family="Monospace" font-size="14" lengthAdjust="spacing" textLength="56.834" x="1070.74" y="687.2889">M-mode</text></g><!--entity H4B--><g class="entity" data-qualified-name="SYS.H4.H4B" data-source-line="42" id="ent0017"><rect fill="#8DB5F0" height="52.5938" rx="6" ry="6" style="stroke:#333333;stroke-width:0.5;" width="107.0967" x="1087.68" y="559.9969"/><text fill="#000000" font-family="Monospace" font-size="14" lengthAdjust="spacing" textLength="87.0967" x="1097.68" y="582.992">Linux&#160;Kernel</text><text fill="#000000" font-family="Monospace" font-size="14" lengthAdjust="spacing" textLength="53.6416" x="1097.68" y="599.2889">S-mode</text></g><!--entity H4C--><g class="entity" data-qualified-name="SYS.H4.H4C" data-source-line="43" id="ent0018"><rect fill="#C9DCF8" height="52.5938" rx="6" ry="6" style="stroke:#333333;stroke-width:0.5;" width="152.7197" x="1064.87" y="471.9969"/><text fill="#000000" font-family="Monospace" font-size="14" lengthAdjust="spacing" textLength="116.9766" x="1074.87" y="494.992">Linux&#160;Supervisor</text><text fill="#000000" font-family="Monospace" font-size="14" lengthAdjust="spacing" textLength="132.7197" x="1074.87" y="511.2889">CLI&#160;Parser&#160;/&#160;Logger</text></g><!--entity PER--><g class="entity" data-qualified-name="SYS.SH.PER" data-source-line="47" id="ent0020"><rect fill="#F5F5F5" height="36.2969" rx="6" ry="6" style="stroke:#333333;stroke-width:0.5;" width="98.5928" x="698.55" y="846.1469"/><text fill="#000000" font-family="Monospace" font-size="14" lengthAdjust="spacing" textLength="78.5928" x="708.55" y="869.142">Peripherals</text></g><!--entity UART--><g class="entity" data-qualified-name="SYS.SH.UART" data-source-line="48" id="ent0021"><rect fill="#F5F5F5" height="36.2969" rx="6" ry="6" style="stroke:#333333;stroke-width:0.5;" width="118.1299" x="688.79" y="775.1469"/><text fill="#000000" font-family="Monospace" font-size="14" lengthAdjust="spacing" textLength="98.1299" x="698.79" y="798.142">UART&#160;Console</text></g><g class="entity" data-qualified-name="GMN23" data-source-line="55" id="ent0024"><path d="M40.45,1246.4669 L40.45,1332.1309 L473.9651,1332.1309 L473.9651,1256.4669 L463.9651,1246.4669 L40.45,1246.4669" fill="#FFF9D6" style="stroke:#666666;stroke-width:0.5;"/><path d="M463.9651,1246.4669 L463.9651,1256.4669 L473.9651,1256.4669 L463.9651,1246.4669" fill="#FFF9D6" style="stroke:#666666;stroke-width:1;"/><text fill="#000000" font-family="Monospace" font-size="13" lengthAdjust="spacing" textLength="412.5151" x="46.45" y="1263.5338">S7&#160;Hart0&#160;boots&#160;the&#160;platform&#160;and&#160;releases&#160;the&#160;application&#160;harts.</text><text fill="#000000" font-family="Monospace" font-size="13" lengthAdjust="spacing" textLength="347.9976" x="46.45" y="1278.6666">Hart1&#160;/&#160;Zephyr&#160;=&#160;sensing&#160;and&#160;telemetry&#160;aggregation.</text><text fill="#000000" font-family="Monospace" font-size="13" lengthAdjust="spacing" textLength="277.9067" x="46.45" y="1293.7994">Hart2&#160;/&#160;FreeRTOS&#160;=&#160;charging&#160;control&#160;logic.</text><text fill="#000000" font-family="Monospace" font-size="13" lengthAdjust="spacing" textLength="272.1367" x="46.45" y="1308.9322">Hart3&#160;/&#160;Bare-metal&#160;=&#160;safety&#160;enforcement.</text><text fill="#000000" font-family="Monospace" font-size="13" lengthAdjust="spacing" textLength="403.5776" x="46.45" y="1324.065">Hart4&#160;/&#160;Linux&#160;=&#160;UART&#160;command&#160;parsing,&#160;supervision,&#160;logging.</text></g><!--link GMN23 to SYS--><g class="link" data-entity-1="ent0024" data-entity-2="ent0002" data-link-type="association" data-source-line="55" id="lnk25"><path d="M63.87,1246.0269 C46.79,1233.4969 33.07,1217.4169 25.45,1196.7969 C6,1144.2169 6,240.3669 25.45,187.7969 C35.0575,161.8219 53.4238,141.6031 75.7861,125.8741 C86.9673,118.0095 99.1475,111.2674 111.7313,105.4894 C113.3043,104.7672 114.8836,104.06 116.4681,103.3675 C117.2603,103.0213 118.0538,102.6788 118.8484,102.3399 C119.2458,102.1705 119.6434,102.002 120.0412,101.8343" fill="none" id="GMN23-SYS" style="stroke:#181818;stroke-width:1;stroke-dasharray:7,7;"/></g><!--link H0 to SH--><g class="link" data-entity-1="ent0003" data-entity-2="ent0019" data-link-type="dependency" data-source-line="66" id="lnk26"><path d="M351.9551,1041.5779 C369.7733,1040.3348 389.2331,1038.3562 409.5075,1035.2944 C490.605,1023.0469 584.735,993.4669 638.96,924.2969 C661.62,895.3869 624.72,787.0369 648.79,759.2969 C652.3762,755.1619 656.5647,751.7416 661.1528,748.9227 C662.2998,748.218 658.1678,750.3557 659.3616,749.7244" fill="none" id="H0-to-SH" style="stroke:#181818;stroke-width:1;"/><polygon fill="#181818" points="664.6657,746.9195,654.8397,747.5908,660.2457,749.2569,658.5795,754.6628,664.6657,746.9195" style="stroke:#181818;stroke-width:1;"/><text fill="#000000" font-family="Monospace" font-size="13" lengthAdjust="spacing" textLength="78.0317" x="532.46" y="920.3638">init&#160;services</text></g><!--link H1 to SH--><g class="link" data-entity-1="ent0005" data-entity-2="ent0019" data-link-type="dependency" data-source-line="67" id="lnk27"><path d="M347.13,939.2656 C348.5149,939.2229 349.9082,939.1748 351.3092,939.121 C356.9133,938.9056 362.6413,938.5991 368.4547,938.1841 C380.0814,937.3543 392.0494,936.0909 404.0494,934.2564 C428.0494,930.5875 452.1775,924.6344 473.96,915.2969 C563.42,876.9469 571.23,841.1969 638.96,771.2969 C643.76,766.3469 642.88,762.8569 648.79,759.2969 C653.475,756.4681 658.4917,754.0327 663.6876,751.9365 C664.0123,751.8055 658.7548,753.8736 659.0809,753.7452" fill="none" id="H1-to-SH" style="stroke:#181818;stroke-width:1;"/><polygon fill="#181818" points="664.6639,751.5475,654.8242,751.1221,660.0114,753.3789,657.7545,758.5661,664.6639,751.5475" style="stroke:#181818;stroke-width:1;"/><text fill="#000000" font-family="Monospace" font-size="13" lengthAdjust="spacing" textLength="100.5342" x="521.46" y="767.3638">use&#160;peripherals</text></g><!--link H2 to SH--><g class="link" data-entity-1="ent0008" data-entity-2="ent0019" data-link-type="dependency" data-source-line="68" id="lnk28"><path d="M283.8974,337.3028 C284.1309,337.375 284.3657,337.4476 284.6019,337.5207 C285.0742,337.6667 285.552,337.8143 286.0352,337.9636 C287.0016,338.2622 287.9895,338.5671 288.9983,338.8783 C291.016,339.5007 293.1175,340.148 295.2979,340.8186 C299.6589,342.1597 304.3362,343.5938 309.292,345.1078 C319.2038,348.1358 330.23,351.4831 342.07,355.0444 C389.43,369.2894 449.81,386.9569 503.96,401.2969 C563.57,417.0769 599.94,385.5569 638.96,433.2969 C660.21,459.2869 625.14,711.4569 648.79,735.2969 C652.5688,739.1081 656.9022,742.042 661.5966,744.2568 C662.1834,744.5336 662.7758,744.7993 663.3735,745.0539 C663.6724,745.1813 663.9726,745.3059 664.274,745.4278 C664.4247,745.4888 658.9932,743.3501 659.1446,743.4097" fill="none" id="H2-to-SH" style="stroke:#181818;stroke-width:1;"/><polygon fill="#181818" points="664.7271,745.6087,657.8193,738.5885,660.075,743.7762,654.8873,746.0319,664.7271,745.6087" style="stroke:#181818;stroke-width:1;"/><text fill="#000000" font-family="Monospace" font-size="13" lengthAdjust="spacing" textLength="47.8931" x="547.96" y="397.3638">use&#160;IPC</text></g><!--link H3 to SH--><g class="link" data-entity-1="ent0011" data-entity-2="ent0019" data-link-type="dependency" data-source-line="69" id="lnk29"><path d="M277.3056,603.431 C277.6931,603.5989 278.0857,603.7692 278.4834,603.9418 C279.2788,604.287 280.0944,604.6416 280.9297,605.0055 C294.2944,610.8272 312.6963,619.0137 333.7925,628.8631 C375.985,648.5619 428.955,674.9119 473.96,702.2969 C488.09,710.8869 488.45,718.5569 503.96,724.2969 C553.89,742.7619 613.51,746.6844 661.1863,745.9056 C661.9312,745.8935 662.6732,745.8801 663.4122,745.8657 C663.7818,745.8585 658.1519,745.9776 658.5199,745.9698" fill="none" id="H3-to-SH" style="stroke:#181818;stroke-width:1;"/><polygon fill="#181818" points="664.5185,745.8432,655.4362,742.034,659.5196,745.9487,655.6049,750.0322,664.5185,745.8432" style="stroke:#181818;stroke-width:1;"/><text fill="#000000" font-family="Monospace" font-size="13" lengthAdjust="spacing" textLength="47.8931" x="547.96" y="720.3638">use&#160;IPC</text></g><!--link H4 to SH--><g class="link" data-entity-1="ent0015" data-entity-2="ent0019" data-link-type="dependency" data-source-line="70" id="lnk30"><path d="M1036.1991,742.4807 C1035.9723,742.49 1035.7456,742.4993 1035.519,742.5086 C1035.0656,742.5272 1034.6125,742.5456 1034.1595,742.5638 C1026.9125,742.8555 1019.72,743.1056 1012.74,743.2969 C943.43,745.1969 926.06,744.5769 856.74,743.2969 C850.8363,743.1869 844.7519,743.0433 838.6207,742.876 C837.0879,742.8342 835.5522,742.7909 834.0156,742.7463 C833.2474,742.724 832.4789,742.7014 831.7104,742.6784 C831.5183,742.6727 837.3235,742.8473 837.1314,742.8415" fill="none" id="H4-to-SH" style="stroke:#181818;stroke-width:1;"/><polygon fill="#181818" points="831.1341,742.6612,840.0099,746.9298,836.1319,742.8114,840.2503,738.9334,831.1341,742.6612" style="stroke:#181818;stroke-width:1;"/><text fill="#000000" font-family="Monospace" font-size="13" lengthAdjust="spacing" textLength="115.9971" x="877.24" y="739.3638">use&#160;UART&#160;and&#160;IPC</text></g><!--link OP to UART--><g class="link" data-entity-1="ent0022" data-entity-2="ent0021" data-link-type="dependency" data-source-line="76" id="lnk31"><path d="M330.19,1177.7369 C421.44,1170.0569 574.59,1141.2769 638.96,1036.2969 C663.15,996.8469 621.24,865.4769 648.79,828.2969 C658.36,815.3669 667.4485,809.1256 682.6485,803.9656" fill="none" id="OP-to-UART" style="stroke:#181818;stroke-width:1;"/><polygon fill="#181818" points="688.33,802.0369,678.5219,801.1423,683.5954,803.6442,681.0935,808.7177,688.33,802.0369" style="stroke:#181818;stroke-width:1;"/><text fill="#000000" font-family="Monospace" font-size="13" lengthAdjust="spacing" textLength="127.3911" x="507.96" y="1032.3638">user&#160;command&#160;text</text></g><!--link UART to H4C--><g class="link" data-entity-1="ent0021" data-entity-2="ent0018" data-link-type="dependency" data-source-line="77" id="lnk32"><path d="M807.31,807.8669 C867.97,819.0969 961.05,824.7369 1012.74,770.2969 C1030.19,751.9069 1005.88,562.8269 1020.74,542.2969 C1031.37,527.6069 1041.8504,519.9721 1058.7904,513.4521" fill="none" id="UART-to-H4C" style="stroke:#181818;stroke-width:1;"/><polygon fill="#181818" points="1064.39,511.2969,1054.5539,510.7966,1059.7237,513.0929,1057.4275,518.2627,1064.39,511.2969" style="stroke:#181818;stroke-width:1;"/><text fill="#000000" font-family="Monospace" font-size="13" lengthAdjust="spacing" textLength="154.7559" x="857.74" y="766.3638">UartConsoleCommandIf</text></g><!--link H1B to SHM--><g class="link" data-entity-1="ent0007" data-entity-2="ent0014" data-link-type="dependency" data-source-line="83" id="lnk33"><path d="M322.66,734.6969 C399.87,687.6269 532.16,604.2869 638.96,523.2969 C671.23,498.8269 701.743,471.4893 722.853,451.8893" fill="none" id="H1B-to-SHM" style="stroke:#181818;stroke-width:1;"/><polygon fill="#181818" points="727.25,447.8069,717.9329,450.9993,723.5858,451.2089,723.3762,456.8619,727.25,447.8069" style="stroke:#181818;stroke-width:1;"/><text fill="#000000" font-family="Monospace" font-size="13" lengthAdjust="spacing" textLength="94.4214" x="524.46" y="519.3638">SensorFrameIf</text></g><!--link SHM to H2B--><g class="link" data-entity-1="ent0014" data-entity-2="ent0010" data-link-type="dependency" data-source-line="84" id="lnk34"><path d="M733.74,410.7269 C715.38,386.1069 679.63,343.0069 638.96,319.2969 C585.32,288.0169 554.63,319.1969 503.96,283.2969 C484.65,269.6069 493.93,251.9969 473.96,239.2969 C431.14,212.0469 380.1654,203.9505 335.5154,202.2105" fill="none" id="SHM-to-H2B" style="stroke:#181818;stroke-width:1;"/><polygon fill="#181818" points="329.52,201.9769,338.3574,206.3243,334.5162,202.1716,338.6689,198.3304,329.52,201.9769" style="stroke:#181818;stroke-width:1;"/><text fill="#000000" font-family="Monospace" font-size="13" lengthAdjust="spacing" textLength="94.4214" x="524.46" y="279.3638">SensorFrameIf</text></g><!--link H2B to SHM--><g class="link" data-entity-1="ent0010" data-entity-2="ent0014" data-link-type="dependency" data-source-line="86" id="lnk35"><path d="M329.65,195.6969 C425.47,185.6369 589.33,174.0169 638.96,205.2969 C713.28,252.1269 736.711,360.1161 743.571,404.8761" fill="none" id="H2B-to-SHM" style="stroke:#181818;stroke-width:1;"/><polygon fill="#181818" points="744.48,410.8069,747.0704,401.3048,743.7225,405.8646,739.1627,402.5167,744.48,410.8069" style="stroke:#181818;stroke-width:1;"/><text fill="#000000" font-family="Monospace" font-size="13" lengthAdjust="spacing" textLength="122.1035" x="510.46" y="181.3638">ChargeCommandIf</text></g><!--link H2B to SHM--><g class="link" data-entity-1="ent0010" data-entity-2="ent0014" data-link-type="dependency" data-source-line="89" id="lnk37"><path d="M329.54,197.5669 C376.05,197.1569 435.11,204.7569 473.96,239.2969 C510.24,271.5369 468.87,310.7669 503.96,344.2969 C548.55,386.8969 580.93,355.4569 638.96,376.2969 C665.08,385.6769 687.8891,396.7873 708.8691,408.0073" fill="none" id="H2B-to-SHM-1" style="stroke:#181818;stroke-width:1;"/><polygon fill="#181818" points="714.16,410.8369,708.11,403.0653,709.7509,408.4789,704.3373,410.1198,714.16,410.8369" style="stroke:#181818;stroke-width:1;"/><text fill="#000000" font-family="Monospace" font-size="13" lengthAdjust="spacing" textLength="96.7129" x="523.46" y="340.3638">ChargeStatusIf</text></g><!--link SHM to H2B--><g class="link" data-entity-1="ent0014" data-entity-2="ent0010" data-link-type="dependency" data-source-line="96" id="lnk42"><path d="M740.73,410.7769 C727.98,375.4169 695.04,298.5769 638.96,262.2969 C613.49,245.8169 438.7026,224.2158 335.6626,212.6558" fill="none" id="SHM-to-H2B-1" style="stroke:#181818;stroke-width:1;"/><polygon fill="#181818" points="329.7,211.9869,338.1979,216.9653,334.6688,212.5443,339.0899,209.0152,329.7,211.9869" style="stroke:#181818;stroke-width:1;"/><text fill="#000000" font-family="Monospace" font-size="13" lengthAdjust="spacing" textLength="133.415" x="504.96" y="231.3638">OperatorCommandIf</text></g><!--link SHM to H3B--><g class="link" data-entity-1="ent0014" data-entity-2="ent0013" data-link-type="dependency" data-source-line="87" id="lnk36"><path d="M674.94,447.9069 C662.99,450.4369 650.68,452.7069 638.96,454.2969 C526.69,469.5269 400.2399,471.5631 324.8499,471.2331" fill="none" id="SHM-to-H3B" style="stroke:#181818;stroke-width:1;"/><polygon fill="#181818" points="318.85,471.2069,327.8324,475.2462,323.85,471.2288,327.8674,467.2463,318.85,471.2069" style="stroke:#181818;stroke-width:1;"/><text fill="#000000" font-family="Monospace" font-size="13" lengthAdjust="spacing" textLength="122.1035" x="510.46" y="450.3638">ChargeCommandIf</text></g><!--link H3B to SHM--><g class="link" data-entity-1="ent0013" data-entity-2="ent0014" data-link-type="dependency" data-source-line="92" id="lnk39"><path d="M318.78,478.2069 C410.55,489.4269 580.35,506.9369 638.96,491.2969 C670.48,482.8869 697.4839,466.337 718.3339,451.297" fill="none" id="H3B-to-SHM" style="stroke:#181818;stroke-width:1;"/><polygon fill="#181818" points="723.2,447.7869,713.5608,449.808,719.1449,450.712,718.2409,456.2961,723.2,447.7869" style="stroke:#181818;stroke-width:1;"/><text fill="#000000" font-family="Monospace" font-size="13" lengthAdjust="spacing" textLength="84.4048" x="529.46" y="487.3638">SafetyStateIf</text></g><!--link SHM to H4C--><g class="link" data-entity-1="ent0014" data-entity-2="ent0018" data-link-type="dependency" data-source-line="90" id="lnk38"><path d="M761.57,447.8569 C779.5,472.1869 814.74,513.7069 856.74,530.2969 C924.8,557.1769 1002.9747,544.0728 1061.7847,526.7428" fill="none" id="SHM-to-H4C" style="stroke:#181818;stroke-width:1;"/><polygon fill="#181818" points="1067.54,525.0469,1057.7764,523.7539,1062.7439,526.4602,1060.0377,531.4277,1067.54,525.0469" style="stroke:#181818;stroke-width:1;"/><text fill="#000000" font-family="Monospace" font-size="13" lengthAdjust="spacing" textLength="96.7129" x="886.74" y="526.3638">ChargeStatusIf</text></g><!--link SHM to H4C--><g class="link" data-entity-1="ent0014" data-entity-2="ent0018" data-link-type="dependency" data-source-line="93" id="lnk40"><path d="M786.37,447.8369 C806.71,457.0569 832.56,467.4369 856.74,473.2969 C925.89,490.0369 1000.9432,495.6604 1058.6332,497.5504" fill="none" id="SHM-to-H4C-1" style="stroke:#181818;stroke-width:1;"/><polygon fill="#181818" points="1064.63,497.7469,1055.7658,493.4543,1059.6327,497.5832,1055.5039,501.45,1064.63,497.7469" style="stroke:#181818;stroke-width:1;"/><text fill="#000000" font-family="Monospace" font-size="13" lengthAdjust="spacing" textLength="84.4048" x="892.74" y="469.3638">SafetyStateIf</text></g><!--link H4C to SHM--><g class="link" data-entity-1="ent0018" data-entity-2="ent0014" data-link-type="dependency" data-source-line="95" id="lnk41"><path d="M1076.33,471.5769 C1056.29,464.1969 1033.88,456.9469 1012.74,452.2969 C951.21,438.7569 885.9543,433.3784 833.0143,431.0684" fill="none" id="H4C-to-SHM" style="stroke:#181818;stroke-width:1;"/><polygon fill="#181818" points="827.02,430.8069,835.8371,435.1954,832.0152,431.0248,836.1858,427.203,827.02,430.8069" style="stroke:#181818;stroke-width:1;"/><text fill="#000000" font-family="Monospace" font-size="13" lengthAdjust="spacing" textLength="133.415" x="868.24" y="429.3638">OperatorCommandIf</text></g><!--link H4C to H4C--><g class="link" data-entity-1="ent0018" data-entity-2="ent0018" data-link-type="dependency" data-source-line="102" id="lnk43"><path d="M1105.75,471.5169 C1096.13,453.9769 1107.96,436.9969 1141.23,436.9969 C1174.5,436.9969 1189.2153,448.7162 1179.5953,466.2562" fill="none" id="H4C-to-H4C" style="stroke:#181818;stroke-width:1;"/><polygon fill="#181818" points="1176.71,471.5169,1184.5451,465.5493,1179.1144,467.1329,1177.5308,461.7023,1176.71,471.5169" style="stroke:#181818;stroke-width:1;"/><text fill="#000000" font-family="Monospace" font-size="13" lengthAdjust="spacing" textLength="105.8662" x="1088.709" y="398.0638">parse&#160;UART&#160;text</text><text fill="#000000" font-family="Monospace" font-size="13" lengthAdjust="spacing" textLength="121.2148" x="1081.0347" y="413.1966">validate&#160;command</text><text fill="#000000" font-family="Monospace" font-size="13" lengthAdjust="spacing" textLength="212.8242" x="1035.23" y="428.3294">translate&#160;to&#160;OperatorCommandIf</text></g><?plantuml-src XLNRRk9847ttLvI6XzsLXfa4c92Cb9MCiHSqN2nCvh926dLCOQoORglTP1Ajvj-tkjk0kGN8IxhgT9rJVQfGgSeGt6487QOKobVmbamcAKyWUYqKhk3FdZiOmpSXdugbo26AaJEPYhySftXAUSuaMy4ZYvyIATPyxebCIFYrJ1LMuiMIpSKlVUc2PKKrCiS5MsSg45oDs0fXABWeSXPNSoJ6Yl64UFxd04ni6SbHmdM33Zf2pb7QmhMc-JY_At0kb4Nk9TwOZpuzu5uBWk2kUqDNE1ak52W1CasM2kQf9f8AxZWxHkyc_SYhVpKTj0rx1wo0w4T45xNrbqfJbGgYnwIwcl6e3QG2PtnONuav6bZl2cftRO_-3E4zM4S8HGZIa7AcX2m1BjIymB_rRYd_zubArpF-q6wTA7KDjKwxU-UxnwN-nNpvAc4o7KTbBbNfTdqlk3bCZP0NrBHWNL1ZPhnUhy_uetNIJsf6llllMMIA9KGYrWR3d_5QIkIA_d-Ko9wm57JTWPhl1gsWSqPGuvoWndb1WKJSgMcSLMEyZtGtLr9asOPJunAdvZbEpVESEanYVOMAPU3cUPb-liziWUfLZqUwVVlcMxGYae9p6E9Aq53tGy_wiZSaJ5T_JyXexMJO2Yqz3TtspGdwunnvrEc3jcKc60tMllAMgx7-hNiaPP3ozGjyGPhWZCQWYY51jztEf-3gD2PQvoYVKpBSZ7k3FeHC5hG5Fi909CdciLeUJSHTrmjkptSbqjV4M9GzsRJaM6M8CisNA6bhcTpGdv2iJ_fxcFhWJgRQEON8h1npi4i-fEA_q5XmUdtgfDmEz3YiBY2pkXHjNR7GAyMXdM6s1pnIrmjGIuGyOseXv0eOdzFr6R82ROJbUPR6J6yi8Dcg-E2OXK3zAWVy7WeQNxsMDLWHcFn8Rc598Z4nI8jf46OpGuIADpyHiHqKo4IInZQrIQaLQrC9wrpan3Ac0bpPn9P-D_EizxPLiLYjD0_QsfhJUoZAvoOQxtK9NVA3WvIY--8uVy3zkG_5me4x3SQJ8PM9_CdNlkU3wtb-5Bs9SsW5r-j_QrDyXfI6ZLfalUBGnjn6rWLrVkSDXvRFNepcpQ7XFpvhxPyPuLgq3buGv7-V-fEHEm1lF1oweow4xhJtjXXoaovdgfY2SjjbXI_ACG6TeQVcCppGivGEzcnQVt69bHk6WxxdJllZaHO1mM3yxLABQSVRBWofgFq52UYN6gcQFZE4QESUnXnzk0FQPRqZkeKsEoUY9y6HOcfTLB6c3mT1HzzO8MmChQDuXDoFEVfm1zmC-WdAHkrn_4Bl1sEFx33eZnw-GpWPQtFtH_zSQ7v9oVBLirQwK1jYnfzPbiw9_SOdCnfmnekCcKLqJF5_?></g></svg>